<svg width="32" height="32" viewBox="0 0 32 32" fill="none" xmlns="http://www.w3.org/2000/svg">
<path d="M21 19C21 19.2652 20.8946 19.5196 20.7071 19.7071C20.5196 19.8946 20.2652 20 20 20H12C11.7348 20 11.4804 19.8946 11.2929 19.7071C11.1054 19.5196 11 19.2652 11 19C11 18.7348 11.1054 18.4804 11.2929 18.2929C11.4804 18.1054 11.7348 18 12 18H20C20.2652 18 20.5196 18.1054 20.7071 18.2929C20.8946 18.4804 21 18.7348 21 19ZM20 14H12C11.7348 14 11.4804 14.1054 11.2929 14.2929C11.1054 14.4804 11 14.7348 11 15C11 15.2652 11.1054 15.5196 11.2929 15.7071C11.4804 15.8946 11.7348 16 12 16H20C20.2652 16 20.5196 15.8946 20.7071 15.7071C20.8946 15.5196 21 15.2652 21 15C21 14.7348 20.8946 14.4804 20.7071 14.2929C20.5196 14.1054 20.2652 14 20 14ZM27 6V27C27 27.5304 26.7893 28.0391 26.4142 28.4142C26.0391 28.7893 25.5304 29 25 29H7C6.46957 29 5.96086 28.7893 5.58579 28.4142C5.21071 28.0391 5 27.5304 5 27V6C5 5.46957 5.21071 4.96086 5.58579 4.58579C5.96086 4.21072 6.46957 4 7 4H11.5325C12.0944 3.37091 12.7828 2.86757 13.5527 2.52295C14.3225 2.17833 15.1565 2.00018 16 2.00018C16.8435 2.00018 17.6775 2.17833 18.4473 2.52295C19.2172 2.86757 19.9056 3.37091 20.4675 4H25C25.5304 4 26.0391 4.21072 26.4142 4.58579C26.7893 4.96086 27 5.46957 27 6ZM12 8H20C20 6.93914 19.5786 5.92172 18.8284 5.17157C18.0783 4.42143 17.0609 4 16 4C14.9391 4 13.9217 4.42143 13.1716 5.17157C12.4214 5.92172 12 6.93914 12 8ZM25 6H21.6562C21.8837 6.64227 22 7.31864 22 8V9C22 9.26522 21.8946 9.51957 21.7071 9.70711C21.5196 9.89464 21.2652 10 21 10H11C10.7348 10 10.4804 9.89464 10.2929 9.70711C10.1054 9.51957 10 9.26522 10 9V8C10 7.31864 10.1163 6.64227 10.3438 6H7V27H25V6Z" fill="white"/>
</svg>
