<svg width="22" height="27" viewBox="0 0 22 27" fill="none" xmlns="http://www.w3.org/2000/svg">
<path d="M16 17C16 17.2652 15.8946 17.5196 15.7071 17.7071C15.5196 17.8946 15.2652 18 15 18H7C6.73478 18 6.48043 17.8946 6.29289 17.7071C6.10536 17.5196 6 17.2652 6 17C6 16.7348 6.10536 16.4804 6.29289 16.2929C6.48043 16.1054 6.73478 16 7 16H15C15.2652 16 15.5196 16.1054 15.7071 16.2929C15.8946 16.4804 16 16.7348 16 17ZM15 12H7C6.73478 12 6.48043 12.1054 6.29289 12.2929C6.10536 12.4804 6 12.7348 6 13C6 13.2652 6.10536 13.5196 6.29289 13.7071C6.48043 13.8946 6.73478 14 7 14H15C15.2652 14 15.5196 13.8946 15.7071 13.7071C15.8946 13.5196 16 13.2652 16 13C16 12.7348 15.8946 12.4804 15.7071 12.2929C15.5196 12.1054 15.2652 12 15 12ZM22 4V25C22 25.5304 21.7893 26.0391 21.4142 26.4142C21.0391 26.7893 20.5304 27 20 27H2C1.46957 27 0.960859 26.7893 0.585786 26.4142C0.210714 26.0391 0 25.5304 0 25V4C0 3.46957 0.210714 2.96086 0.585786 2.58579C0.960859 2.21072 1.46957 2 2 2H6.5325C7.09438 1.37091 7.78279 0.867573 8.55266 0.52295C9.32254 0.178326 10.1565 0.000183105 11 0.000183105C11.8435 0.000183105 12.6775 0.178326 13.4473 0.52295C14.2172 0.867573 14.9056 1.37091 15.4675 2H20C20.5304 2 21.0391 2.21072 21.4142 2.58579C21.7893 2.96086 22 3.46957 22 4ZM7 6H15C15 4.93914 14.5786 3.92172 13.8284 3.17157C13.0783 2.42143 12.0609 2 11 2C9.93913 2 8.92172 2.42143 8.17157 3.17157C7.42143 3.92172 7 4.93914 7 6ZM20 4H16.6562C16.8837 4.64227 17 5.31864 17 6V7C17 7.26522 16.8946 7.51957 16.7071 7.70711C16.5196 7.89464 16.2652 8 16 8H6C5.73478 8 5.48043 7.89464 5.29289 7.70711C5.10536 7.51957 5 7.26522 5 7V6C5.00002 5.31864 5.11627 4.64227 5.34375 4H2V25H20V4Z" fill="#6D0000"/>
</svg>
